<svg width="1440" height="6984" viewBox="0 0 1440 6984" fill="none" xmlns="http://www.w3.org/2000/svg">
<g clip-path="url(#clip0_187_631)">
<path d="M718.455 -127.925L200.91 -417.851L-103.045 124.739M718.455 -127.925L564.423 147.036M718.455 -127.925L1236 162L1081.97 436.961M718.455 -127.925L414.499 414.664M414.499 414.664L-103.045 124.739M414.499 414.664L564.423 147.036M414.499 414.664L932.044 704.59M414.499 414.664L260.468 689.625M414.499 414.664L110.544 957.254M-103.045 124.739L-407.001 667.328L110.544 957.254M289.157 -368.415L-318.754 716.764M374.577 -320.564L-233.334 764.615M459.997 -272.712L-147.914 812.467M545.417 -224.86L-62.4942 860.319M630.837 -177.008L22.9258 908.171M148.446 -324.197L1183.54 255.654M97.6624 -233.543L1132.75 346.307M564.423 147.036L46.8787 -142.89M564.423 147.036L1081.97 436.961M-3.90497 -52.2359L1031.18 527.615M-54.6887 38.4178L980.401 618.269M932.044 704.59L1081.97 436.961M932.044 704.59L778.013 979.551M806.701 -78.4901L198.791 1006.69M892.121 -30.6383L284.211 1054.54M977.541 17.2134L369.631 1102.39M1062.96 65.0652L455.05 1150.24M1148.38 112.917L540.47 1198.1M110.544 957.254L260.468 689.625M110.544 957.254L628.089 1247.18L778.013 979.551M-155.509 218.392L879.58 798.243M-206.293 309.046L828.796 888.897M260.468 689.625L-257.077 399.7M260.468 689.625L778.013 979.551M-307.86 490.354L727.229 1070.2M-358.644 581.007L676.445 1160.86" stroke="black" stroke-opacity="0.15" stroke-width="11"/>
<path d="M1874.1 5707.89L1966.86 5089.31L1355.7 4997.65M1874.1 5707.89L1564.38 5661.44M1874.1 5707.89L1781.33 6326.47L1471.62 6280.03M1874.1 5707.89L1262.93 5616.24M1262.93 5616.24L1355.7 4997.65M1262.93 5616.24L1564.38 5661.44M1262.93 5616.24L1170.17 6234.82M1262.93 5616.24L953.218 5569.79M1262.93 5616.24L651.765 5524.58M1355.7 4997.65L744.53 4906L651.765 5524.58M1951.04 5194.78L728.712 5011.47M1935.73 5296.88L713.401 5113.57M1920.42 5398.97L698.091 5215.67M1905.11 5501.07L682.78 5317.76M1889.8 5603.16L667.469 5419.86M1861.37 5073.49L1675.84 6310.65M1759.26 5058.17L1573.73 6295.34M1564.38 5661.44L1657.15 5042.86M1564.38 5661.44L1471.62 6280.03M1555.04 5027.55L1369.51 6264.71M1452.93 5012.23L1267.4 6249.4M1170.17 6234.82L1471.62 6280.03M1170.17 6234.82L860.453 6188.37M1858.28 5813.36L635.947 5630.06M1842.97 5915.46L620.636 5732.15M1827.66 6017.56L605.326 5834.25M1812.35 6119.65L590.015 5936.35M1797.04 6221.75L574.704 6038.44M651.765 5524.58L953.218 5569.79M651.765 5524.58L559 6143.17L860.453 6188.37M1250.21 4981.83L1064.68 6219M1148.09 4966.52L962.564 6203.69M953.218 5569.79L1045.98 4951.21M953.218 5569.79L860.453 6188.37M943.872 4935.89L758.342 6173.06M841.76 4920.58L656.23 6157.75" stroke="black" stroke-opacity="0.15" stroke-width="11"/>
<path d="M14.0563 1629.69L-464 1949.38L-138.386 2436.29M14.0563 1629.69L179.063 1876.44M14.0563 1629.69L492.113 1310L657.12 1556.75M14.0563 1629.69L339.67 2116.6M339.67 2116.6L-138.386 2436.29M339.67 2116.6L179.063 1876.44M339.67 2116.6L817.727 1796.91M339.67 2116.6L504.677 2363.35M339.67 2116.6L665.284 2603.52M-138.386 2436.29L187.228 2923.21L665.284 2603.52M-382.487 1894.87L268.741 2868.7M-303.584 1842.1L347.644 2815.94M-224.682 1789.34L426.546 2763.17M-145.779 1736.58L505.449 2710.41M-66.8768 1683.81L584.351 2657.64M-407.798 2033.42L548.315 1394.04M-353.395 2114.77L602.717 1475.4M179.063 1876.44L-298.993 2196.13M179.063 1876.44L657.12 1556.75M-244.591 2277.48L711.522 1638.1M-190.188 2358.83L765.924 1719.45M817.727 1796.91L657.12 1556.75M817.727 1796.91L982.734 2043.66M95.5695 1575.18L746.798 2549.01M174.472 1522.41L825.7 2496.25M253.374 1469.65L904.603 2443.48M332.277 1416.89L983.505 2390.72M411.179 1364.12L1062.41 2337.95M665.284 2603.52L504.677 2363.35M665.284 2603.52L1143.34 2283.83L982.734 2043.66M-82.1835 2520.34L873.929 1880.96M-27.7812 2601.69L928.331 1962.31M504.677 2363.35L26.6211 2683.04M504.677 2363.35L982.734 2043.66M81.0235 2764.39L1037.14 2125.01M135.426 2845.75L1091.54 2206.37" stroke="black" stroke-opacity="0.15" stroke-width="11"/>
<path d="M1527.81 3532.55L1029.76 3245L736.879 3752.28M1527.81 3532.55L1379.39 3789.62M1527.81 3532.55L2025.86 3820.1L1877.44 4077.17M1527.81 3532.55L1234.93 4039.83M1234.93 4039.83L736.879 3752.28M1234.93 4039.83L1379.39 3789.62M1234.93 4039.83L1732.98 4327.38M1234.93 4039.83L1086.51 4296.9M1234.93 4039.83L942.052 4547.11M736.879 3752.28L444.001 4259.56L942.052 4547.11M1114.68 3294.03L528.924 4308.59M1196.88 3341.49L611.126 4356.05M1279.09 3388.95L693.329 4403.51M1361.29 3436.41L775.531 4450.97M1443.49 3483.87L857.734 4498.43M979.206 3332.56L1975.31 3907.66M930.273 3417.31L1926.37 3992.41M1379.39 3789.62L881.34 3502.07M1379.39 3789.62L1877.44 4077.17M832.407 3586.82L1828.51 4161.92M783.474 3671.58L1779.57 4246.68M1732.98 4327.38L1877.44 4077.17M1732.98 4327.38L1584.56 4584.45M1612.73 3581.58L1026.97 4596.14M1694.93 3629.04L1109.18 4643.6M1777.14 3676.5L1191.38 4691.06M1859.34 3723.96L1273.58 4738.52M1941.54 3771.42L1355.78 4785.98M942.052 4547.11L1086.51 4296.9M942.052 4547.11L1440.1 4834.66L1584.56 4584.45M686.327 3839.84L1682.43 4414.94M637.394 3924.59L1633.5 4499.69M1086.51 4296.9L588.461 4009.35M1086.51 4296.9L1584.56 4584.45M539.528 4094.1L1535.63 4669.2M490.595 4178.86L1486.7 4753.96" stroke="black" stroke-opacity="0.15" stroke-width="11"/>
<path d="M1193.99 1335.46L1296.94 1760.16M1264.89 1318.27L1367.83 1742.97M1335.79 1301.09L1438.73 1725.79M1406.69 1283.9L1509.63 1708.6M1477.59 1266.72L1580.53 1691.42M1568.08 1322.39L1138.52 1426.51M1585.28 1393.35L1155.72 1497.47M1602.48 1464.31L1172.92 1568.43M1602.48 1464.31L1550.31 1249.09L1120.75 1353.21L1223.69 1777.91L1653.25 1673.79L1602.48 1464.31ZM1619.68 1535.27L1190.11 1639.39M1636.87 1606.22L1207.31 1710.34" stroke="black" stroke-opacity="0.15" stroke-width="11"/>
<path d="M-102.756 4515.37L0.187395 4940.07M-31.8572 4498.18L71.0858 4922.88M39.0413 4481L141.984 4905.7M109.94 4463.81L212.883 4888.51M180.838 4446.63L283.781 4871.33M271.33 4502.31L-158.232 4606.43M288.529 4573.26L-141.032 4677.38M305.728 4644.22L-123.833 4748.34M305.728 4644.22L253.561 4429L-176 4533.12L-73.057 4957.82L356.504 4853.7L305.728 4644.22ZM322.928 4715.18L-106.634 4819.3M340.127 4786.14L-89.4343 4890.26" stroke="black" stroke-opacity="0.15" stroke-width="11"/>
<path d="M-200.42 3667.41C-100.575 2747.21 579.635 838.297 2501.71 564.229" stroke="#F79AD3" stroke-opacity="0.28" stroke-width="119"/>
<path d="M1868.98 -128.737C1179.7 489.018 -602.096 1454.34 -2215 373.589" stroke="#F79AD3" stroke-opacity="0.28" stroke-width="119"/>
<rect x="-11.3398" y="5874.39" width="2275" height="75.4243" transform="rotate(-30.58 -11.3398 5874.39)" fill="#FCF073" fill-opacity="0.45"/>
<rect x="-166.496" y="5747.58" width="2275" height="146.272" transform="rotate(-30.58 -166.496 5747.58)" fill="#FCF073" fill-opacity="0.45"/>
<rect x="-222.352" y="1572" width="2275" height="106.348" transform="rotate(26.6185 -222.352 1572)" fill="#60C5FF" fill-opacity="0.23"/>
<rect x="-230.08" y="1430" width="2275" height="75.8962" transform="rotate(26.6185 -230.08 1430)" fill="#60C5FF" fill-opacity="0.23"/>
<path d="M718.455 6856.07L200.91 6566.15L-103.045 7108.74M718.455 6856.07L564.423 7131.04M718.455 6856.07L1236 7146L1081.97 7420.96M718.455 6856.07L414.499 7398.66M414.499 7398.66L-103.045 7108.74M414.499 7398.66L564.423 7131.04M414.499 7398.66L932.044 7688.59M414.499 7398.66L260.468 7673.63M414.499 7398.66L110.544 7941.25M-103.045 7108.74L-407.001 7651.33L110.544 7941.25M289.157 6615.58L-318.754 7700.76M374.577 6663.44L-233.334 7748.62M459.997 6711.29L-147.914 7796.47M545.417 6759.14L-62.4942 7844.32M630.837 6806.99L22.9258 7892.17M148.446 6659.8L1183.54 7239.65M97.6624 6750.46L1132.75 7330.31M564.423 7131.04L46.8787 6841.11M564.423 7131.04L1081.97 7420.96M-3.90497 6931.76L1031.18 7511.61M-54.6887 7022.42L980.401 7602.27M932.044 7688.59L1081.97 7420.96M932.044 7688.59L778.013 7963.55M806.701 6905.51L198.791 7990.69M892.121 6953.36L284.211 8038.54M977.541 7001.21L369.631 8086.39M1062.96 7049.07L455.05 8134.24M1148.38 7096.92L540.47 8182.1M110.544 7941.25L260.468 7673.63M110.544 7941.25L628.089 8231.18L778.013 7963.55M-155.509 7202.39L879.58 7782.24M-206.293 7293.05L828.796 7872.9M260.468 7673.63L-257.077 7383.7M260.468 7673.63L778.013 7963.55M-307.86 7474.35L727.229 8054.2M-358.644 7565.01L676.445 8144.86" stroke="black" stroke-opacity="0.15" stroke-width="11"/>
</g>
<defs>
<clipPath id="clip0_187_631">
<rect width="1440" height="6984" fill="white"/>
</clipPath>
</defs>
</svg>
